<?xml version="1.0" standalone="no"?>
<!DOCTYPE svg PUBLIC "-//W3C//DTD SVG 20010904//EN"
 "http://www.w3.org/TR/2001/REC-SVG-20010904/DTD/svg10.dtd">
<svg version="1.0" xmlns="http://www.w3.org/2000/svg"
 width="718.000000pt" height="1304.000000pt" viewBox="0 0 718.000000 1304.000000"
 preserveAspectRatio="xMidYMid meet">

<g transform="translate(0.000000,1304.000000) scale(0.100000,-0.100000)"
fill="#000000" stroke="none">
<path d="M3321 12725 c-16 -14 -32 -34 -35 -43 -3 -9 -100 -525 -216 -1147
-115 -621 -212 -1136 -215 -1143 -3 -7 -14 -12 -26 -10 -16 2 -31 28 -67 111
-35 84 -52 111 -70 118 -31 12 -72 -12 -72 -42 0 -16 68 -190 87 -221 4 -7
-88 -58 -105 -58 -5 0 -34 47 -66 105 -61 112 -84 134 -121 117 -44 -20 -40
-45 24 -166 l61 -114 -25 -16 c-82 -53 -65 -59 -150 52 -42 55 -84 102 -94
105 -26 6 -58 -9 -66 -32 -8 -26 3 -46 82 -150 34 -46 63 -88 63 -93 0 -5 -11
-13 -24 -19 -21 -10 -139 35 -948 360 -507 204 -936 371 -951 371 -20 0 -40
-11 -63 -34 -33 -33 -40 -58 -28 -103 5 -16 1211 -1139 1481 -1378 l34 -30
-16 -100 c-68 -445 93 -924 419 -1251 209 -208 461 -342 769 -408 l27 -6 0
-284 0 -283 -710 -674 c-749 -711 -760 -723 -760 -808 0 -87 46 -163 121 -202
54 -27 143 -26 197 4 22 12 286 256 587 542 300 286 550 522 555 523 6 2 10
-422 10 -1143 l0 -1147 -1035 -1839 c-570 -1011 -1044 -1857 -1055 -1881 -27
-60 -25 -114 8 -178 68 -135 240 -161 344 -52 21 22 408 699 952 1667 505 897
921 1633 925 1638 4 4 220 -673 481 -1505 260 -832 491 -1568 512 -1636 28
-88 48 -132 71 -159 130 -147 377 -56 377 140 0 29 -90 331 -271 908 -148 475
-407 1301 -575 1836 l-304 971 0 1116 c0 648 4 1116 9 1116 5 0 143 -141 307
-312 518 -543 542 -566 599 -584 141 -42 276 61 275 210 -1 38 -7 73 -18 93
-10 18 -227 252 -482 520 -256 267 -516 540 -577 604 l-113 118 0 336 c0 184
2 335 4 335 27 0 192 38 266 62 533 169 933 636 1014 1186 7 51 15 94 17 97 2
2 465 296 1029 654 564 359 1037 663 1053 677 51 48 23 150 -48 168 -15 4
-457 -86 -1177 -240 l-1152 -245 -18 23 c-10 13 -18 25 -18 28 0 3 52 58 115
121 117 117 131 141 99 173 -34 34 -60 20 -180 -96 l-115 -112 -29 30 -29 29
94 155 c52 85 94 164 95 176 0 28 -33 56 -62 52 -18 -2 -44 -37 -114 -153 -51
-82 -96 -149 -102 -148 -6 2 -31 17 -56 35 -54 37 -56 24 25 194 32 69 59 133
59 143 0 23 -31 51 -57 51 -29 0 -43 -21 -108 -162 -32 -71 -62 -128 -66 -128
-11 0 -108 50 -113 58 -2 4 -88 527 -190 1162 -102 635 -191 1172 -196 1193
-12 43 -58 77 -102 77 -14 0 -40 -11 -57 -25z m189 -1515 c71 -442 127 -806
125 -808 -2 -3 -46 4 -97 14 -71 15 -136 19 -275 19 -132 0 -183 3 -183 12 0
10 270 1469 286 1546 3 16 8 27 10 24 2 -2 62 -365 134 -807z m-1993 -1065
c323 -131 589 -238 591 -240 2 -1 -27 -47 -64 -101 -37 -55 -90 -146 -117
-204 -28 -58 -51 -107 -53 -109 -3 -4 -974 889 -974 896 0 6 -73 35 617 -242z
m1863 -145 c238 -30 452 -133 618 -299 419 -419 409 -1090 -21 -1497 -202
-191 -435 -284 -713 -284 -66 0 -147 5 -180 11 -540 96 -914 585 -863 1128 55
582 584 1011 1159 941z m2795 -6 c-11 -8 -103 -68 -205 -132 -101 -64 -418
-266 -705 -448 -286 -183 -521 -331 -522 -330 -2 1 -12 56 -23 121 -22 130
-72 290 -120 385 -17 34 -28 65 -25 69 5 5 1583 348 1610 350 6 0 1 -7 -10
-15z"/>
<path d="M2772 9489 c-122 -61 -155 -230 -64 -332 48 -52 102 -77 172 -77 73
0 131 28 169 80 83 114 47 276 -73 331 -57 26 -149 25 -204 -2z"/>
<path d="M3550 9464 c-120 -52 -172 -206 -107 -316 41 -71 102 -103 194 -103
63 0 76 3 115 30 54 38 88 99 95 169 16 158 -152 283 -297 220z"/>
<path d="M2693 8629 c-86 -25 -98 -151 -18 -187 19 -9 169 -12 570 -12 l543 0
30 25 c16 14 33 37 36 51 10 37 -10 89 -42 111 -25 17 -61 18 -557 20 -307 1
-543 -2 -562 -8z"/>
</g>
</svg>
